<?xml version="1.0" encoding="utf-8"?>
<!-- Generator: Adobe Illustrator 19.0.0, SVG Export Plug-In . SVG Version: 6.00 Build 0)  -->
<svg version="1.1" id="Layer_1" xmlns="http://www.w3.org/2000/svg" xmlns:xlink="http://www.w3.org/1999/xlink" x="0px" y="0px"
	 viewBox="0 0 64 64" style="enable-background:new 0 0 64 64;" xml:space="preserve">
<style type="text/css">
	.st0{fill:#FFFFFF;}
</style>
<g id="XMLID_1_">
	<path id="XMLID_11_" class="st0" d="M26.2,26.4c0-2.3-1.8-2.4-3.7-2.4H17v5h5.9C24.9,29,26.2,28.5,26.2,26.4z"/>
	<path id="XMLID_14_" class="st0" d="M32,0C14.3,0,0,14.3,0,32s14.3,32,32,32s32-14.3,32-32S49.7,0,32,0z M38,21h10v3H38V21z M24,44
		H12V20h11.6c4.2,0,7.8,0.9,7.8,5.8c0,2.5-1.1,3.9-3.3,5c3,0.9,4.5,3.1,4.5,6.1C32.6,41.9,28.4,44,24,44z M51.9,36H39.1
		c0,3,1.5,4.9,4.4,4.9c1.5,0,3.4-0.9,3.9-1.9h4.3c-1.3,4-4.1,5.7-8.3,5.7c-5.6,0-9.1-3.9-9.1-9.4c0-5.3,3.7-9.5,9.1-9.5
		c5.6,0,8.6,4.2,8.6,9.4C51.9,35.6,51.9,36,51.9,36z"/>
	<path id="XMLID_17_" class="st0" d="M23.3,33H17v7h6.2c2.2,0,4-0.9,4-3.4S25.7,33,23.3,33z"/>
	<path id="XMLID_18_" class="st0" d="M43.1,29.2c-2.3,0-3.9,1.8-4,3.8H47C46.8,31,45.6,29.2,43.1,29.2z"/>
</g>
</svg>
