<?xml version="1.0" encoding="utf-8"?>
<!-- Generator: Adobe Illustrator 19.0.0, SVG Export Plug-In . SVG Version: 6.00 Build 0)  -->
<svg version="1.1" id="Layer_1" xmlns="http://www.w3.org/2000/svg" xmlns:xlink="http://www.w3.org/1999/xlink" x="0px" y="0px"
	 viewBox="0 0 64 64" style="enable-background:new 0 0 64 64;" xml:space="preserve">
<style type="text/css">
	.st0{fill:#FFFFFF;}
</style>
<path id="XMLID_10_" class="st0" d="M32,0C14.3,0,0,14.3,0,32c0,17.7,14.3,32,32,32s32-14.3,32-32C64,14.3,49.7,0,32,0z M23,46h-7
	V24h7V46z M19.3,21L19.3,21c-2.5,0-4-1.4-4-3.5c0-2.1,1.6-3.6,4.1-3.6c2.5,0,4,1.4,4,3.6C23.3,19.5,21.8,21,19.3,21z M49,46h-7V34.4
	c0-2.9-1.3-4.9-3.9-4.9c-2,0-3.3,1.3-3.8,2.6c-0.2,0.5-0.4,1.1-0.4,1.8V46h-7.2c0.1-19.6,0-22,0-22H34v3.5c1-1.5,2.8-3.6,6.6-3.6
	c4.7,0,8.4,3.1,8.4,9.7V46z"/>
</svg>
