<?xml version="1.0" encoding="UTF-8"?>
<svg width="400px" height="400px" viewBox="0 0 400 400" version="1.1" xmlns="http://www.w3.org/2000/svg" xmlns:xlink="http://www.w3.org/1999/xlink">
    <!-- Generator: Sketch 41.2 (35397) - http://www.bohemiancoding.com/sketch -->
    <title>olufemi-logo</title>
    <desc>Created with Sketch.</desc>
    <defs></defs>
    <g id="Page-1" stroke="none" stroke-width="1" fill="none" fill-rule="evenodd">
        <g id="olufemi-logo">
            <path d="M66.29,222 L66.29,222 C66.2849648,222.029789 66.2849648,222.060211 66.29,222.09 L66.29,222 Z" id="Shape" fill="#212121"></path>
            <path d="M77,192.34 L77,192.34 C77,192.34 77,192.37 77,192.34 Z" id="Shape" fill="#212121"></path>
            <path d="M122.29,378 C122.355402,376.542889 122.251372,375.083111 121.98,373.65 C121.680574,372.190585 121.269361,370.756357 120.75,369.36 C119.547708,366.123415 118.954396,362.692377 119,359.24 C119.062928,355.800853 119.608247,352.387559 120.62,349.1 C121.11159,347.478426 121.685671,345.883015 122.34,344.32 L124.27,339.9 C125.49701,336.620249 127.180238,333.529843 129.27,330.72 C130.520806,329.154876 132.045567,327.830028 133.77,326.81 C135.375757,325.894402 137.107704,325.220492 138.91,324.81 C138.937817,324.681674 138.954545,324.551193 138.96,324.42 C138.983821,323.941846 138.957005,323.462513 138.88,322.99 L138.81,322.59 L138.68,322.01 L138.43,320.85 L136.43,311.55 L135.43,306.9 C135.330261,306.326686 135.176235,305.764154 134.97,305.22 C134.854642,304.91248 134.68532,304.628019 134.47,304.38 C134.041327,303.974588 133.495165,303.715511 132.91,303.64 L128.64,302.94 L109.58,299.78 C107.99,299.51 106.43,299.28 104.72,298.89 C103.01,298.5 101.37,298.11 99.72,297.64 C96.1958677,296.635714 92.8049659,295.212206 89.62,293.4 C86.1646572,291.355882 83.1823275,288.601913 80.87,285.32 C78.656027,282.058277 77.0783487,278.407564 76.22,274.56 C75.4285022,271.042883 74.9962841,267.454468 74.93,263.85 L74.93,261.26 L74.93,260.17 L74.93,259.27 C74.8705466,258.209517 74.6756303,257.161001 74.35,256.15 C73.6393559,254.254729 72.4090006,252.598082 70.8,251.37 L69.01,249.95 C68.3,249.41 67.57,248.74 66.86,248.12 C65.1937175,246.612631 63.7553516,244.871097 62.59,242.95 C61.8222969,241.725534 61.2393595,240.39455 60.86,239 C60.6745653,238.265712 60.5574003,237.515856 60.51,236.76 C60.441403,236.02159 60.441403,235.27841 60.51,234.54 C60.778497,232.085246 61.5259437,229.707007 62.71,227.54 C63.5762181,225.9552 64.5449435,224.428622 65.61,222.97 C65.44,222.65 65.25,222.25 65.06,221.86 C64.87,221.47 64.64,221.01 64.45,220.53 C63.5242115,218.456532 62.9173485,216.254968 62.65,214 C62.34025,211.234163 62.7573125,208.435363 63.86,205.88 C64.8470174,203.711509 66.2001268,201.729204 67.86,200.02 L68.93,198.94 L69.99,197.94 C70.71,197.28 71.43,196.69 72.09,196.16 C73.41,195.1 74.52,194.22 75.32,193.45 C75.8198944,192.98104 76.2813738,192.472743 76.7,191.93 C76.4314097,191.544618 76.1338842,191.180233 75.81,190.84 L74.26,189.23 C73.65,188.59 73.01,187.9 72.35,187.13 C70.8187276,185.359543 69.5828742,183.353814 68.69,181.19 C68.2189746,179.98084 67.8835887,178.723143 67.69,177.44 C67.5848741,176.811044 67.5147661,176.176733 67.48,175.54 L67.48,174.7 L67.48,173.91 C67.4740569,171.714505 67.7462228,169.527097 68.29,167.4 C68.8606222,165.162577 69.7748219,163.027195 71,161.07 C72.197581,159.190505 73.6478199,157.48454 75.31,156 C76.8542957,154.635669 78.5290221,153.426516 80.31,152.39 L81.59,151.67 L82.66,151.11 L84.79,150 L89,147.75 L97.49,143.28 L105.98,138.82 L108.1,137.7 L109.91,136.7 C110.829301,136.192866 111.685269,135.578583 112.46,134.87 C113.638114,133.822369 114.356562,132.353144 114.46,130.78 C114.475253,130.546916 114.475253,130.313084 114.46,130.08 C114.476942,129.830287 114.476942,129.579713 114.46,129.33 L114.46,129 L114.46,128.34 C114.46,127.88 114.4,127.42 114.39,126.96 C114.319619,125.112917 114.353005,123.26334 114.49,121.42 C114.764981,117.726544 115.45945,114.076386 116.56,110.54 C116.84,109.66 117.143333,108.786667 117.47,107.92 L117.97,106.65 L118.46,105.49 C119.11,103.94 119.77,102.41 120.46,100.89 C126.040833,88.5879876 133.695726,77.3373589 143.09,67.63 C147.773252,62.8068613 152.873036,58.4064568 158.33,54.48 C163.55,50.74 168,47.41 170.25,43.1 C170.543081,42.5613207 170.8068,42.0071773 171.04,41.44 C171.168371,41.1607244 171.278599,40.8734617 171.37,40.58 L171.71,39.58 C172.369942,37.607747 173.287906,35.7314692 174.44,34 C176.499313,30.9031374 179.022057,28.140935 181.92,25.81 C184.608227,23.5237711 187.519539,21.5136591 190.61,19.81 C193.713585,18.1370894 196.98503,16.7963332 200.37,15.81 C206.871339,14.0516456 213.565936,13.107751 220.3,13 C226.806251,12.7379933 233.321729,12.8147638 239.82,13.23 C246.301944,13.664663 252.755043,14.4558603 259.15,15.6 C265.50487,16.741279 271.796578,18.2099005 278,20 C286.808388,22.5053759 295.451851,25.5579745 303.88,29.14 C272.596036,10.0491926 236.648931,-0.0345448748 200,1.85473924e-14 C89.54,-3.55271368e-15 -8.47032947e-22,89.54 -8.47032947e-22,200 C-0.0160054364,279.827944 47.4400032,352.020195 120.73,383.66 C121.644198,381.904799 122.175888,379.97572 122.29,378 L122.29,378 Z" id="Shape" fill="#424296"></path>
            <path d="M139.22,324.71 L139.22,324.71 L139.4,324.71 C139.49,324.62 139.32,324.66 139.22,324.71 Z" id="Shape" fill="#212121"></path>
            <path d="M308,31.64 C303.92,30.34 299.82,29.1 295.7,28 C289.56,26.32 283.39,24.82 277.16,23.66 C264.789064,21.2197553 252.209315,19.9939331 239.6,20 C233.33,20 227.11,20.35 220.85,21 C214.821499,21.4611504 208.869486,22.6394677 203.12,24.51 C200.409644,25.4561684 197.805518,26.6828224 195.35,28.17 C192.908483,29.667075 190.62366,31.4058181 188.53,33.36 C186.511242,35.121579 184.77441,37.1821702 183.38,39.47 C182.811107,40.4517235 182.374014,41.5041094 182.08,42.6 L181.69,43.92 C181.556617,44.3908832 181.399755,44.8547966 181.22,45.31 C180.861289,46.2276524 180.454048,47.1255861 180,48 C179.155484,49.7551588 178.15125,51.428882 177,53 C175.851851,54.4784404 174.602163,55.8751507 173.26,57.18 C170.776798,59.5058255 168.169659,61.6956883 165.45,63.74 C160.655613,67.4460355 156.179976,71.5470298 152.07,76 C147.993579,80.4405428 144.312917,85.2287485 141.07,90.31 C137.794644,95.399848 134.944971,100.751347 132.55,106.31 C131.93,107.69 131.36,109.1 130.81,110.51 L130.39,111.57 L130.03,112.57 C129.81,113.21 129.6,113.85 129.41,114.49 C128.2779,118.332796 127.80123,122.338847 128,126.34 C128,126.68 128,127.01 128.06,127.34 L128.15,128.68 C128.15,129.22 128.21,129.75 128.15,130.32 C128.09,130.89 128.15,131.43 128.07,132.01 C127.886163,134.435596 127.262684,136.80753 126.23,139.01 C125.184985,141.1885 123.759264,143.162836 122.02,144.84 C120.470471,146.327134 118.748171,147.623055 116.89,148.7 C116.46,148.96 116.03,149.19 115.6,149.43 L114.5,150.02 L112.39,151.14 L104,155.58 L95.56,160.06 L91.34,162.3 L89.23,163.42 L88.23,163.98 L87.43,164.44 C85.5945686,165.445443 84.0140818,166.858302 82.81,168.57 C81.8140896,170.183451 81.3166346,172.054995 81.38,173.95 L81.38,174.71 C81.3690156,174.869811 81.3690156,175.030189 81.38,175.19 C81.4215953,175.481678 81.4988396,175.767146 81.61,176.04 C81.95491,176.826639 82.424252,177.5526 83,178.19 C83.38,178.64 83.81,179.12 84.3,179.64 C84.79,180.16 85.3,180.64 86.06,181.49 C86.818339,182.314929 87.5199441,183.190264 88.16,184.11 C88.9750718,185.285447 89.6244977,186.567474 90.09,187.92 C90.3735424,188.744731 90.5745275,189.595568 90.69,190.46 C90.7954575,191.390354 90.7954575,192.329646 90.69,193.26 C90.4965757,194.92522 89.9766567,196.53595 89.16,198 C88.0018264,200.033982 86.5227874,201.867585 84.78,203.43 C83.26,204.85 81.78,205.92 80.65,206.85 C80.06,207.32 79.54,207.73 79.08,208.15 L78.38,208.78 L77.76,209.39 C77.1703714,209.954754 76.6741896,210.609579 76.29,211.33 C76.1143295,211.714597 76.0485672,212.140322 76.1,212.56 C76.2214148,213.486768 76.4809609,214.390124 76.87,215.24 C76.96,215.5 77.12,215.81 77.24,216.09 C77.36,216.37 77.49,216.65 77.68,217.02 C77.87,217.39 78.09,217.86 78.34,218.43 C78.6582791,219.16335 78.9125593,219.922845 79.1,220.7 C79.6022764,222.808566 79.4344874,225.021283 78.62,227.03 C78.4478085,227.452897 78.2542253,227.866764 78.04,228.27 C77.84,228.62 77.64,228.96 77.42,229.27 L76.8,230.14 L76.49,230.56 C75.709251,231.562583 74.9944144,232.614796 74.35,233.71 C73.9816401,234.330244 73.7149332,235.005452 73.56,235.71 C73.56,235.99 73.47,235.94 73.74,236.49 C74.2400218,237.29674 74.8453529,238.033226 75.54,238.68 C76.03,239.11 76.45,239.54 77.01,239.98 L78.94,241.58 C80.5534065,242.959087 81.9878857,244.534662 83.21,246.27 C84.5008909,248.12162 85.4961057,250.162654 86.16,252.32 C86.7601356,254.365458 87.0961953,256.479274 87.16,258.61 L87.16,260.1 L87.16,261.4 L87.16,263.59 C87.1211191,266.373809 87.3623331,269.15447 87.88,271.89 C88.3348798,274.305874 89.2224667,276.619698 90.5,278.72 C91.7925949,280.722899 93.4971014,282.427405 95.5,283.72 C97.8283922,285.142076 100.315335,286.28654 102.91,287.13 C104.29,287.56 105.67,288.01 107.13,288.35 C108.59,288.69 110.13,289.06 111.65,289.35 L130.23,293.35 L132.55,293.85 L133.72,294.11 C134.26,294.22 134.79,294.34 135.35,294.5 C136.546146,294.843938 137.687499,295.355695 138.74,296.02 C139.90589,296.753931 140.923536,297.700342 141.74,298.81 C142.48629,299.842093 143.063514,300.986413 143.45,302.2 C143.754424,303.179541 143.975216,304.183138 144.11,305.2 L144.87,309.96 L146.38,319.48 L146.57,320.67 L146.66,321.26 C146.66,321.52 146.73,321.78 146.75,322.05 C146.858541,323.162195 146.835045,324.283329 146.68,325.39 C146.491573,326.811297 145.96332,328.166231 145.14,329.34 C144.602306,330.074808 143.922113,330.693784 143.14,331.16 C142.401412,331.587799 141.591829,331.879114 140.75,332.02 C138.359326,332.327432 136.153468,333.467539 134.52,335.24 C132.651585,337.445612 131.096884,339.898809 129.9,342.53 L127.68,346.74 C127.000438,348.077957 126.389643,349.449743 125.85,350.85 C124.78569,353.605956 124.112488,356.497356 123.85,359.44 C123.610844,362.372606 123.871208,365.324532 124.62,368.17 C125.082809,369.808136 125.417157,371.479871 125.62,373.17 C125.790015,374.897947 125.756451,376.639885 125.52,378.36 C125.186063,380.588985 124.407292,382.728055 123.23,384.65 C147.554089,394.789907 173.647032,400.007136 200,400 C310.46,400 400,310.46 400,200 C400.039019,131.866114 365.362017,68.4071999 308,31.64 Z" id="Shape" fill="#424296"></path>
        </g>
    </g>
</svg>