<svg id="Layer_1" data-name="Layer 1" xmlns="http://www.w3.org/2000/svg" viewBox="0 0 400 400"><defs><style>.cls-1{fill:#212121;}</style></defs><title>Olufemi Logo</title><path class="cls-1" d="M66.29,222h0a.27.27,0,0,0,0,.09Z"/><path class="cls-1" d="M77,192.34v0S77,192.37,77,192.34Z"/><path class="cls-1" d="M122.29,378a18.84,18.84,0,0,0-.31-4.35,29.06,29.06,0,0,0-1.23-4.29A28,28,0,0,1,119,359.24a36.76,36.76,0,0,1,1.62-10.14,49.77,49.77,0,0,1,1.72-4.78l1.93-4.42a37.26,37.26,0,0,1,5-9.18,16.54,16.54,0,0,1,4.5-3.91,18.81,18.81,0,0,1,5.14-2,2.29,2.29,0,0,0,.05-.39,6.79,6.79,0,0,0-.08-1.43l-.07-.4-.13-.58-.25-1.16-2-9.3-1-4.65a9.18,9.18,0,0,0-.46-1.68,2.76,2.76,0,0,0-.5-.84,2.79,2.79,0,0,0-1.56-.74l-4.27-.7-19.06-3.16c-1.59-.27-3.15-.5-4.86-.89s-3.35-.78-5-1.25a45.81,45.81,0,0,1-10.1-4.24,28.38,28.38,0,0,1-8.75-8.08,31.29,31.29,0,0,1-4.65-10.76,53.24,53.24,0,0,1-1.29-10.71l0-2.59,0-1.09c0-.31,0-.61,0-.9a12.45,12.45,0,0,0-.58-3.12,10.77,10.77,0,0,0-3.55-4.78l-1.79-1.42c-.71-.54-1.44-1.21-2.15-1.83a23.19,23.19,0,0,1-4.27-5.17A14.7,14.7,0,0,1,60.86,239a12.29,12.29,0,0,1-.35-2.24,12,12,0,0,1,0-2.22,18.88,18.88,0,0,1,2.2-7,41.51,41.51,0,0,1,2.9-4.57c-.17-.32-.36-.72-.55-1.11s-.42-.85-.61-1.33A22.52,22.52,0,0,1,62.65,214a16,16,0,0,1,1.21-8.12,20.75,20.75,0,0,1,4-5.86l1.07-1.08,1.06-1c.72-.66,1.44-1.25,2.1-1.78,1.32-1.06,2.43-1.94,3.23-2.71a12.82,12.82,0,0,0,1.38-1.52,9.26,9.26,0,0,0-.89-1.09l-1.55-1.61c-.61-.64-1.25-1.33-1.91-2.1a21.78,21.78,0,0,1-3.66-5.94,17.54,17.54,0,0,1-1-3.75,17.22,17.22,0,0,1-.21-1.9c0-.34,0-.58,0-.84v-.79a26,26,0,0,1,.81-6.51A22.33,22.33,0,0,1,71,161.07,24.32,24.32,0,0,1,75.31,156a31.43,31.43,0,0,1,5-3.61l1.28-.72,1.07-.56L84.79,150,89,147.75l8.49-4.47,8.49-4.46,2.12-1.12,1.81-1a13.29,13.29,0,0,0,2.55-1.83,6,6,0,0,0,2-4.09,5.36,5.36,0,0,0,0-.7,5.54,5.54,0,0,0,0-.75V129l0-.66c0-.46-.06-.92-.07-1.38a49.38,49.38,0,0,1,.1-5.54,48.81,48.81,0,0,1,2.07-10.88q.42-1.32.91-2.62l.5-1.27.49-1.16c.65-1.55,1.31-3.08,2-4.6a117.82,117.82,0,0,1,22.63-33.26,114.26,114.26,0,0,1,15.24-13.15c5.22-3.74,9.67-7.07,11.92-11.38a17,17,0,0,0,.79-1.66,7.15,7.15,0,0,0,.33-.86l.34-1A23.58,23.58,0,0,1,174.44,34a36.32,36.32,0,0,1,7.48-8.19,52.64,52.64,0,0,1,8.69-6,50.12,50.12,0,0,1,9.76-4A81.32,81.32,0,0,1,220.3,13a187.68,187.68,0,0,1,19.52.23,177,177,0,0,1,19.33,2.37A187.58,187.58,0,0,1,278,20a220.13,220.13,0,0,1,25.88,9.14A199.06,199.06,0,0,0,200,0C89.54,0,0,89.54,0,200A200,200,0,0,0,120.73,383.66,14,14,0,0,0,122.29,378Z"/><path class="cls-1" d="M139.22,324.71h0l.18,0C139.49,324.62,139.32,324.66,139.22,324.71Z"/><path class="cls-1" d="M308,31.64c-4.08-1.3-8.18-2.54-12.3-3.64-6.14-1.68-12.31-3.18-18.54-4.34A193.6,193.6,0,0,0,239.6,20c-6.27,0-12.49.35-18.75,1a76.06,76.06,0,0,0-17.73,3.51,41.23,41.23,0,0,0-7.77,3.66,42.73,42.73,0,0,0-6.82,5.19,26.22,26.22,0,0,0-5.15,6.11,12.92,12.92,0,0,0-1.3,3.13l-.39,1.32a14.67,14.67,0,0,1-.47,1.39A27.8,27.8,0,0,1,180,48,31.75,31.75,0,0,1,177,53a40.33,40.33,0,0,1-3.74,4.18,94.39,94.39,0,0,1-7.81,6.56A108.55,108.55,0,0,0,152.07,76a103.49,103.49,0,0,0-11,14.31,110,110,0,0,0-8.52,16c-.62,1.38-1.19,2.79-1.74,4.2l-.42,1.06-.36,1c-.22.64-.43,1.28-.62,1.92A35.67,35.67,0,0,0,128,126.34c0,.34,0,.67.06,1l.09,1.34c0,.54.06,1.07,0,1.64s0,1.11-.08,1.69a20.06,20.06,0,0,1-1.84,7,20.29,20.29,0,0,1-4.21,5.83,26.86,26.86,0,0,1-5.13,3.86c-.43.26-.86.49-1.29.73l-1.1.59-2.11,1.12L104,155.58l-8.44,4.48-4.22,2.24-2.11,1.12-1,.56-.8.46a13.69,13.69,0,0,0-4.62,4.13,9.63,9.63,0,0,0-1.43,5.38c0,.25,0,.61,0,.76a3.5,3.5,0,0,0,0,.48,3.6,3.6,0,0,0,.23.85A8,8,0,0,0,83,178.19c.38.45.81.93,1.3,1.45s1,1,1.76,1.85a24.82,24.82,0,0,1,2.1,2.62,15.59,15.59,0,0,1,1.93,3.81,13.18,13.18,0,0,1,.6,2.54,12.43,12.43,0,0,1,0,2.8A12.75,12.75,0,0,1,89.16,198a21.74,21.74,0,0,1-4.38,5.43c-1.52,1.42-3,2.49-4.13,3.42-.59.47-1.11.88-1.57,1.3l-.7.63-.62.61a7.71,7.71,0,0,0-1.47,1.94,2.29,2.29,0,0,0-.19,1.23,9.36,9.36,0,0,0,.77,2.68c.09.26.25.57.37.85s.25.56.44.93.41.84.66,1.41a13.87,13.87,0,0,1,.76,2.27,10.42,10.42,0,0,1-.48,6.33,13.47,13.47,0,0,1-.58,1.24c-.2.35-.4.69-.62,1l-.62.87-.31.42a29.36,29.36,0,0,0-2.14,3.15,6.76,6.76,0,0,0-.79,2c0,.28-.09.23.18.78a10.68,10.68,0,0,0,1.8,2.19c.49.43.91.86,1.47,1.3l1.93,1.6a25.44,25.44,0,0,1,4.27,4.69,21.78,21.78,0,0,1,2.95,6.05,25,25,0,0,1,1,6.29c0,.51,0,1,0,1.49l0,1.3,0,2.19a41.52,41.52,0,0,0,.72,8.3,20.41,20.41,0,0,0,2.62,6.83,16.78,16.78,0,0,0,5,5,34.94,34.94,0,0,0,7.41,3.41c1.38.43,2.76.88,4.22,1.22s3,.71,4.52,1l18.58,4,2.32.5,1.17.26c.54.11,1.07.23,1.63.39a13.17,13.17,0,0,1,3.39,1.52,11,11,0,0,1,3,2.79,12,12,0,0,1,1.71,3.39,18.14,18.14,0,0,1,.66,3l.76,4.76,1.51,9.52.19,1.19.09.59c0,.26.07.52.09.79a14.16,14.16,0,0,1-.07,3.34,8.92,8.92,0,0,1-1.54,3.95,6.78,6.78,0,0,1-2,1.82,7.11,7.11,0,0,1-2.39.86,10.25,10.25,0,0,0-6.23,3.22,31.38,31.38,0,0,0-4.62,7.29l-2.22,4.21a44.08,44.08,0,0,0-1.83,4.11,31.65,31.65,0,0,0-2,8.59,26,26,0,0,0,.77,8.73,32.74,32.74,0,0,1,1,5,22.17,22.17,0,0,1-.1,5.19,16.81,16.81,0,0,1-2.29,6.29A199.38,199.38,0,0,0,200,400c110.46,0,200-89.54,200-200A199.84,199.84,0,0,0,308,31.64Z"/></svg>