<?xml version="1.0" encoding="utf-8"?>
<!-- Generator: Adobe Illustrator 19.0.0, SVG Export Plug-In . SVG Version: 6.00 Build 0)  -->
<svg version="1.1" id="Layer_1" xmlns="http://www.w3.org/2000/svg" xmlns:xlink="http://www.w3.org/1999/xlink" x="0px" y="0px"
	 viewBox="0 0 500 200" style="enable-background:new 0 0 500 200;" xml:space="preserve">
<style type="text/css">
	.st0{fill:#212121;}
</style>
<path id="XMLID_54_" class="st0" d="M31,64v72h71V64H31z M73,130H60V70h13V130z"/>
<path id="XMLID_53_" class="st0" d="M106,64v72h72V64H106z M159,80h-22v16h21v10h-21v24h-12V70h34V80z"/>
<path id="XMLID_51_" class="st0" d="M182,64v72h71V64H182z M235,80h-22v14h20v10h-20v15h22v11h-35V70h35V80z"/>
<path id="XMLID_46_" class="st0" d="M257,64v72h72V64H257z M323,130h-11v-28.4c0-1.3,0.1-2.9,0.1-4.7c0-1.7,0.3-5.9,0.6-13.9h-0.4
	l-14.7,47h-11.1l-13.8-47h-0.4c0.5,10,0.6,15.9,0.6,19.1V130h-11V70h16.8l13.5,46h0.2l14.3-46H323V130z"/>
<path id="XMLID_47_" class="st0" d="M334,64v72h72V64H334z M387,80h-22v14h21v10h-21v15h22v11h-34V70h34V80z"/>
<g id="XMLID_29_">
	<path id="XMLID_43_" class="st0" d="M410,64v72h71V64H410z M461.7,122.1c-5.6,5.2-13.7,7.9-24.3,7.9H421V70h18.3
		c9.8,0,17.3,2.6,22.7,7.8c5.4,5.2,8.1,12.4,8.1,21.6C470.1,109.3,467.3,116.9,461.7,122.1z"/>
	<path id="XMLID_44_" class="st0" d="M439.9,80H433v39h5.6c12.2,0,18.3-6.6,18.3-19.7C457,86.5,451.3,80,439.9,80z"/>
</g>
<g id="XMLID_1_">
</g>
<g id="XMLID_2_">
</g>
<g id="XMLID_34_">
</g>
<g id="XMLID_39_">
</g>
<g id="XMLID_40_">
</g>
<g id="XMLID_49_">
</g>
<g id="XMLID_50_">
</g>
<g id="XMLID_52_">
</g>
<g id="XMLID_55_">
</g>
<g id="XMLID_56_">
</g>
<g id="XMLID_57_">
</g>
<g id="XMLID_58_">
</g>
<g id="XMLID_59_">
</g>
<g id="XMLID_60_">
</g>
<g id="XMLID_61_">
</g>
</svg>
