<?xml version="1.0" encoding="utf-8"?>
<!-- Generator: Adobe Illustrator 19.0.0, SVG Export Plug-In . SVG Version: 6.00 Build 0)  -->
<svg version="1.1" id="Layer_1" xmlns="http://www.w3.org/2000/svg" xmlns:xlink="http://www.w3.org/1999/xlink" x="0px" y="0px"
	 viewBox="-249 151 500 200" style="enable-background:new -249 151 500 200;" xml:space="preserve">
<style type="text/css">
	.st0{fill:#212121;}
</style>
<g id="XMLID_20_">
</g>
<g id="XMLID_69_">
</g>
<g id="XMLID_71_">
</g>
<g id="XMLID_73_">
</g>
<g id="XMLID_75_">
</g>
<g id="XMLID_76_">
</g>
<g id="XMLID_77_">
</g>
<g id="XMLID_78_">
</g>
<g id="XMLID_79_">
</g>
<g id="XMLID_80_">
</g>
<g id="XMLID_81_">
</g>
<g id="XMLID_82_">
</g>
<g id="XMLID_83_">
</g>
<g id="XMLID_85_">
</g>
<g>
	<path class="st0" d="M-181.2,261.9h-0.4h-9.7v14.2h-12.8v-50.4h22.5c13.3,0,21,6.3,21,17.6c0,7.7-3.2,13.2-9.1,16.2l10.6,16.6
		h-14.5L-181.2,261.9z M-181.6,251.9c5.5,0,8.8-2.8,8.8-8.1c0-5.3-3.2-7.9-8.8-7.9h-9.7v16.1H-181.6z"/>
	<path class="st0" d="M-139.1,235.8v10h24.1v10.1h-24.1V266h27.4v10.1H-152v-50.4h39.5v10.1H-139.1z"/>
	<path class="st0" d="M-68.2,276.1l-23.2-31v31h-12v-50.4h11.3l23.3,31.1v-31.1h12v50.4H-68.2z"/>
	<path class="st0" d="M-34,235.8v10h24v10.1h-24V266h27.4v10.1h-40.3v-50.4h39.5v10.1H-34z"/>
	<path class="st0" d="M46.3,250.5v19.7c-5.4,3.8-13.9,6.6-21,6.6c-15.3,0-26.9-11.1-26.9-25.8c0-14.6,11.9-25.6,27.8-25.6
		c7.5,0,15.4,2.9,20.6,7.5l-7.2,8.7c-3.7-3.4-8.8-5.5-13.5-5.5c-8.3,0-14.6,6.5-14.6,14.9c0,8.6,6.4,15,14.8,15
		c2.6,0,5.9-0.9,8.9-2.4v-13H46.3z"/>
	<path class="st0" d="M66.6,266.8l-3.7,9.3H49.8l21.7-50.4h13.2l21.2,50.4H92.3l-3.6-9.3H66.6z M77.7,238.5l-7.3,18.6h14.5
		L77.7,238.5z"/>
	<path class="st0" d="M132.3,225.7c15.8,0,26.8,10.2,26.8,25.2c0,14.9-11.1,25.2-27.3,25.2h-21.2v-50.4H132.3z M123.4,265.9h9.1
		c7.8,0,13.5-6,13.5-14.9c0-8.9-5.9-15-14-15h-8.6V265.9z"/>
	<path class="st0" d="M178.7,235.8v10h24v10.1h-24V266h27.4v10.1h-40.3v-50.4h39.5v10.1H178.7z"/>
</g>
</svg>
