<?xml version="1.0" encoding="utf-8"?>
<!-- Generator: Adobe Illustrator 19.0.0, SVG Export Plug-In . SVG Version: 6.00 Build 0)  -->
<svg version="1.1" id="Layer_1" xmlns="http://www.w3.org/2000/svg" xmlns:xlink="http://www.w3.org/1999/xlink" x="0px" y="0px"
	 viewBox="0 0 500 200" style="enable-background:new 0 0 500 200;" xml:space="preserve">
<style type="text/css">
	.st0{fill:#212121;}
</style>
<g id="XMLID_74_">
	<g id="XMLID_677_">
		<path id="XMLID_757_" class="st0" d="M36.7,142.4l-4.4-6.3h4.1l2.3,3.5l2.3-3.5h4l-4.4,6.2l4.9,7h-4.1l-2.8-4.2l-2.8,4.2H32
			L36.7,142.4z"/>
		<path id="XMLID_754_" class="st0" d="M62.9,141.6H50v-2.7h12.9V141.6z M62.9,147.1H50v-2.7h12.9V147.1z"/>
		<path id="XMLID_751_" class="st0" d="M72.8,134.1h-3.6v-3h3.6V134.1z M69.2,136.2h3.6v13.2h-3.6V136.2z"/>
		<path id="XMLID_749_" class="st0" d="M75.2,136.2h3.5v1.8h0.1c0.9-1.5,2.5-2.2,4-2.2c3.9,0,4.8,2.2,4.8,5.5v8.1H84v-7.5
			c0-2.2-0.6-3.3-2.3-3.3c-2,0-2.8,1.1-2.8,3.8v6.9h-3.6V136.2z"/>
		<path id="XMLID_746_" class="st0" d="M99.3,147.7L99.3,147.7c-0.9,1.4-2.4,2-4.1,2c-4,0-5.9-3.4-5.9-7.1c0-3.6,2-6.9,5.9-6.9
			c1.6,0,3.1,0.7,3.9,2h0h0.1v-6.7h3.6v18.3h-3.5V147.7z M96.1,138.6c-2.4,0-3.2,2-3.2,4.2c0,2.1,0.9,4.2,3.2,4.2
			c2.4,0,3.1-2.1,3.1-4.3C99.3,140.6,98.5,138.6,96.1,138.6z"/>
		<path id="XMLID_743_" class="st0" d="M108,143.7c0.1,2.3,1.2,3.4,3.3,3.4c1.5,0,2.6-0.9,2.9-1.7h3.2c-1,3.1-3.2,4.5-6.2,4.5
			c-4.2,0-6.8-2.9-6.8-7c0-4,2.7-7,6.8-7c4.5,0,6.7,3.8,6.4,7.9H108z M113.9,141.4c-0.3-1.8-1.1-2.8-2.9-2.8c-2.3,0-3,1.8-3,2.8
			H113.9z"/>
		<path id="XMLID_740_" class="st0" d="M119.2,136.2h3.5v1.7h0.1c0.9-1.4,2.3-2,3.9-2c4.1,0,6,3.4,6,7.1c0,3.5-1.9,6.8-5.8,6.8
			c-1.6,0-3.1-0.7-4-2h-0.1v6.3h-3.6V136.2z M129,142.8c0-2.1-0.8-4.3-3.2-4.3c-2.4,0-3.1,2.1-3.1,4.3c0,2.1,0.8,4.2,3.2,4.2
			C128.2,147,129,145,129,142.8z"/>
		<path id="XMLID_737_" class="st0" d="M137.3,143.7c0.1,2.3,1.2,3.4,3.3,3.4c1.5,0,2.6-0.9,2.9-1.7h3.2c-1,3.1-3.2,4.5-6.2,4.5
			c-4.2,0-6.8-2.9-6.8-7c0-4,2.7-7,6.8-7c4.5,0,6.7,3.8,6.4,7.9H137.3z M143.2,141.4c-0.3-1.8-1.1-2.8-2.9-2.8c-2.3,0-3,1.8-3,2.8
			H143.2z"/>
		<path id="XMLID_735_" class="st0" d="M148.5,136.2h3.5v1.8h0.1c0.9-1.5,2.5-2.2,4-2.2c3.9,0,4.8,2.2,4.8,5.5v8.1h-3.6v-7.5
			c0-2.2-0.6-3.3-2.3-3.3c-2,0-2.8,1.1-2.8,3.8v6.9h-3.6V136.2z"/>
		<path id="XMLID_732_" class="st0" d="M172.6,147.7L172.6,147.7c-0.9,1.4-2.4,2-4.1,2c-4,0-5.9-3.4-5.9-7.1c0-3.6,2-6.9,5.9-6.9
			c1.6,0,3.1,0.7,3.9,2h0h0.1v-6.7h3.6v18.3h-3.5V147.7z M169.4,138.6c-2.4,0-3.2,2-3.2,4.2c0,2.1,0.9,4.2,3.2,4.2
			c2.4,0,3.1-2.1,3.1-4.3C172.5,140.6,171.8,138.6,169.4,138.6z"/>
		<path id="XMLID_729_" class="st0" d="M181.3,143.7c0.1,2.3,1.2,3.4,3.3,3.4c1.5,0,2.6-0.9,2.9-1.7h3.2c-1,3.1-3.2,4.5-6.2,4.5
			c-4.2,0-6.8-2.9-6.8-7c0-4,2.7-7,6.8-7c4.5,0,6.7,3.8,6.4,7.9H181.3z M187.2,141.4c-0.3-1.8-1.1-2.8-2.9-2.8c-2.3,0-3,1.8-3,2.8
			H187.2z"/>
		<path id="XMLID_727_" class="st0" d="M192.4,136.2h3.5v1.8h0.1c0.9-1.5,2.5-2.2,4-2.2c3.9,0,4.8,2.2,4.8,5.5v8.1h-3.6v-7.5
			c0-2.2-0.6-3.3-2.3-3.3c-2,0-2.8,1.1-2.8,3.8v6.9h-3.6V136.2z"/>
		<path id="XMLID_725_" class="st0" d="M211.7,136.2h2.7v2.4h-2.7v6.6c0,1.2,0.3,1.5,1.5,1.5c0.4,0,0.7,0,1.1-0.1v2.8
			c-0.6,0.1-1.4,0.1-2.1,0.1c-2.2,0-4.2-0.5-4.2-3.1v-7.8h-2.2v-2.4h2.2v-4h3.6V136.2z"/>
		<path id="XMLID_723_" class="st0" d="M215.7,131.1h3.6v18.3h-3.6V131.1z"/>
		<path id="XMLID_721_" class="st0" d="M228.2,151.1c-0.8,2.1-2,3-4.6,3c-0.7,0-1.5-0.1-2.2-0.1v-3c0.7,0.1,1.4,0.2,2.1,0.1
			c1.3-0.1,1.7-1.4,1.3-2.5l-4.7-12.4h3.9l3,9.1h0.1l2.9-9.1h3.8L228.2,151.1z"/>
		<path id="XMLID_718_" class="st0" d="M247.5,135.8c4.2,0,6.9,2.8,6.9,7c0,4.2-2.7,7-6.9,7c-4.1,0-6.8-2.8-6.8-7
			C240.7,138.6,243.3,135.8,247.5,135.8z M247.5,147c2.5,0,3.2-2.1,3.2-4.2c0-2.1-0.7-4.2-3.2-4.2c-2.5,0-3.2,2.1-3.2,4.2
			C244.3,144.9,245,147,247.5,147z"/>
		<path id="XMLID_716_" class="st0" d="M255.7,136.2h3.5v2.5h0.1c0.7-1.7,2.5-2.8,4.2-2.8c0.3,0,0.6,0.1,0.8,0.1v3.4
			c-0.3-0.1-0.9-0.1-1.3-0.1c-2.7,0-3.6,1.9-3.6,4.2v6h-3.6V136.2z"/>
		<path id="XMLID_713_" class="st0" d="M277.8,148.6c0,2.2-0.8,5.9-6.9,5.9c-2.6,0-5.7-1.2-5.8-4.2h3.6c0.3,1.4,1.4,1.8,2.7,1.8
			c2,0,2.9-1.4,2.9-3.3V147h-0.1c-0.8,1.4-2.4,2-4,2c-4,0-5.7-3-5.7-6.7c0-3.4,2-6.6,5.7-6.6c1.7,0,3.1,0.6,3.9,2.1h0.1v-1.8h3.5
			V148.6z M274.4,142.6c0-2.2-0.7-4.1-3.1-4.1c-2,0-2.9,1.8-2.9,3.8c0,1.9,0.7,4,2.9,4C273.4,146.3,274.4,144.5,274.4,142.6z"/>
		<path id="XMLID_710_" class="st0" d="M279.6,140.2c0.2-3.4,3.3-4.4,6.2-4.4c2.6,0,5.8,0.6,5.8,3.8v6.9c0,1.2,0.1,2.4,0.5,2.9h-3.7
			c-0.1-0.4-0.2-0.8-0.3-1.3c-1.2,1.2-2.8,1.6-4.5,1.6c-2.5,0-4.5-1.3-4.5-4c0-3,2.3-3.7,4.5-4c2.2-0.3,4.3-0.3,4.3-1.7
			c0-1.6-1.1-1.8-2.4-1.8c-1.4,0-2.3,0.6-2.4,2H279.6z M288,142.9c-0.6,0.5-1.9,0.6-3,0.8c-1.1,0.2-2.1,0.6-2.1,1.9
			c0,1.4,1,1.7,2.2,1.7c2.8,0,2.9-2.3,2.9-3V142.9z"/>
		<path id="XMLID_708_" class="st0" d="M293.9,136.2h3.5v1.8h0.1c0.9-1.5,2.5-2.2,4-2.2c3.9,0,4.8,2.2,4.8,5.5v8.1h-3.6v-7.5
			c0-2.2-0.6-3.3-2.3-3.3c-2,0-2.8,1.1-2.8,3.8v6.9h-3.6V136.2z"/>
		<path id="XMLID_705_" class="st0" d="M311.8,134.1h-3.6v-3h3.6V134.1z M308.2,136.2h3.6v13.2h-3.6V136.2z"/>
		<path id="XMLID_703_" class="st0" d="M313.3,146.7l6.9-7.8h-6.4v-2.7H325v2.7l-6.9,7.8h7.4v2.7h-12.2V146.7z"/>
		<path id="XMLID_700_" class="st0" d="M329.9,143.7c0.1,2.3,1.2,3.4,3.3,3.4c1.5,0,2.6-0.9,2.9-1.7h3.2c-1,3.1-3.2,4.5-6.2,4.5
			c-4.2,0-6.8-2.9-6.8-7c0-4,2.7-7,6.8-7c4.5,0,6.7,3.8,6.4,7.9H329.9z M335.8,141.4c-0.3-1.8-1.1-2.8-2.9-2.8c-2.3,0-3,1.8-3,2.8
			H335.8z"/>
		<path id="XMLID_697_" class="st0" d="M350.6,147.7L350.6,147.7c-0.9,1.4-2.4,2-4.1,2c-4,0-5.9-3.4-5.9-7.1c0-3.6,2-6.9,5.9-6.9
			c1.6,0,3.1,0.7,3.9,2h0h0.1v-6.7h3.6v18.3h-3.5V147.7z M347.4,138.6c-2.4,0-3.2,2-3.2,4.2c0,2.1,0.9,4.2,3.2,4.2
			c2.4,0,3.1-2.1,3.1-4.3C350.5,140.6,349.7,138.6,347.4,138.6z"/>
		<path id="XMLID_695_" class="st0" d="M367.3,134.5h-5.5v-3.4h15v3.4h-5.5v14.9h-4V134.5z"/>
		<path id="XMLID_693_" class="st0" d="M378.3,131.1H392v3.4h-9.6v3.9h8.9v3.1h-8.9v4.5h9.9v3.4h-13.9V131.1z"/>
		<path id="XMLID_690_" class="st0" d="M393.9,131.1h7.9c4.7,0,8.3,3,8.3,9c0,5.3-2.7,9.2-8.3,9.2h-7.9V131.1z M397.9,146h3.6
			c2.3,0,4.6-1.4,4.6-5.5c0-3.7-1.3-6-5.3-6h-2.9V146z"/>
		<path id="XMLID_687_" class="st0" d="M421.6,143.7c0.1,2.3,1.2,3.4,3.3,3.4c1.5,0,2.6-0.9,2.9-1.7h3.2c-1,3.1-3.2,4.5-6.2,4.5
			c-4.2,0-6.8-2.9-6.8-7c0-4,2.7-7,6.8-7c4.5,0,6.7,3.8,6.4,7.9H421.6z M427.5,141.4c-0.3-1.8-1.1-2.8-2.9-2.8c-2.3,0-3,1.8-3,2.8
			H427.5z"/>
		<path id="XMLID_685_" class="st0" d="M439.6,149.4h-4l-4.5-13.2h3.8l2.8,9h0.1l2.8-9h3.6L439.6,149.4z"/>
		<path id="XMLID_682_" class="st0" d="M447.5,143.7c0.1,2.3,1.2,3.4,3.3,3.4c1.5,0,2.6-0.9,2.9-1.7h3.2c-1,3.1-3.2,4.5-6.2,4.5
			c-4.2,0-6.8-2.9-6.8-7c0-4,2.7-7,6.8-7c4.5,0,6.7,3.8,6.4,7.9H447.5z M453.4,141.4c-0.3-1.8-1.1-2.8-2.9-2.8c-2.3,0-3,1.8-3,2.8
			H453.4z"/>
		<path id="XMLID_680_" class="st0" d="M458.7,136.2h3.5v1.8h0.1c0.9-1.5,2.5-2.2,4-2.2c3.9,0,4.8,2.2,4.8,5.5v8.1h-3.6v-7.5
			c0-2.2-0.6-3.3-2.3-3.3c-2,0-2.8,1.1-2.8,3.8v6.9h-3.6V136.2z"/>
		<path id="XMLID_678_" class="st0" d="M478,136.2h2.7v2.4H478v6.6c0,1.2,0.3,1.5,1.5,1.5c0.4,0,0.7,0,1.1-0.1v2.8
			c-0.6,0.1-1.4,0.1-2.1,0.1c-2.2,0-4.2-0.5-4.2-3.1v-7.8h-2.2v-2.4h2.2v-4h3.6V136.2z"/>
	</g>
</g>
<g id="XMLID_25_">
	<g id="XMLID_66_">
		<path id="XMLID_72_" class="st0" d="M47.7,70.7H30.6V55.1h52.8v15.6h-17v45.3H47.7V70.7z"/>
		<path id="XMLID_70_" class="st0" d="M86.4,55.1h51.3v15.6h-32.5v7.6h32.5v14.5h-32.5v7.6h32.5v15.6H86.4V55.1z"/>
		<path id="XMLID_67_" class="st0" d="M140.8,55.1h30.8c20.3,0,27.4,15,27.4,30.3c0,18.7-9.9,30.5-31.1,30.5h-27.1V55.1z
			 M159.6,100.3h7.3c11.7,0,13.4-9.5,13.4-15.2c0-3.8-1.2-14.5-14.8-14.5h-6V100.3z"/>
	</g>
	<g id="XMLID_26_">
		<g id="XMLID_88_">
			<path id="XMLID_89_" class="st0" d="M226,92.5l-5.7-9.5l-5.6,9.5h-13.7l13-19.2L201.4,55h13.7l5.1,9.1l5.2-9.1h13.7l-12.6,18.3
				l13,19.2H226z"/>
		</g>
	</g>
</g>
<g id="XMLID_1_">
	<path id="XMLID_24_" class="st0" d="M254.6,115.9V55.5h8v60.5H254.6z"/>
	<path id="XMLID_61_" class="st0" d="M277.5,115.9v-38H271v-5.8h6.6v-4.7c0-2.9,0.3-5.1,0.8-6.6c0.7-1.9,2-3.5,3.8-4.7
		c1.8-1.2,4.3-1.8,7.6-1.8c2.1,0,4.4,0.2,6.9,0.7l-1.1,6.5c-1.5-0.3-3-0.4-4.4-0.4c-2.3,0-3.9,0.5-4.8,1.4c-0.9,1-1.4,2.8-1.4,5.4v4
		h8.5v5.8h-8.5v38H277.5z"/>
	<path id="XMLID_63_" class="st0" d="M329.2,101.8l7.7,0.9c-1.2,4.5-3.5,8-6.7,10.4c-3.3,2.5-7.5,3.7-12.5,3.7
		c-6.4,0-11.5-2-15.2-5.9c-3.8-3.9-5.6-9.5-5.6-16.6c0-7.4,1.9-13.1,5.7-17.2c3.8-4.1,8.7-6.1,14.8-6.1c5.9,0,10.6,2,14.4,6
		c3.7,4,5.6,9.6,5.6,16.8c0,0.4,0,1.1,0,2h-32.7c0.3,4.8,1.6,8.5,4.1,11.1c2.4,2.6,5.5,3.8,9.2,3.8c2.7,0,5-0.7,7-2.1
		C326.6,107.2,328.1,105,329.2,101.8z M304.9,89.8h24.5c-0.3-3.7-1.3-6.4-2.8-8.3c-2.4-2.9-5.4-4.3-9.2-4.3c-3.4,0-6.3,1.1-8.6,3.4
		C306.4,82.9,305.1,86,304.9,89.8z"/>
</g>
<g id="XMLID_20_">
</g>
<g id="XMLID_69_">
</g>
<g id="XMLID_71_">
</g>
<g id="XMLID_73_">
</g>
<g id="XMLID_75_">
</g>
<g id="XMLID_76_">
</g>
<g id="XMLID_77_">
</g>
<g id="XMLID_78_">
</g>
<g id="XMLID_79_">
</g>
<g id="XMLID_80_">
</g>
<g id="XMLID_81_">
</g>
<g id="XMLID_82_">
</g>
<g id="XMLID_83_">
</g>
<g id="XMLID_85_">
</g>
<g id="XMLID_86_">
</g>
</svg>
