<?xml version="1.0" encoding="utf-8"?>
<!-- Generator: Adobe Illustrator 19.0.0, SVG Export Plug-In . SVG Version: 6.00 Build 0)  -->
<svg version="1.1" id="Layer_1" xmlns="http://www.w3.org/2000/svg" xmlns:xlink="http://www.w3.org/1999/xlink" x="0px" y="0px"
	 viewBox="-249 151 500 200" style="enable-background:new -249 151 500 200;" xml:space="preserve">
<style type="text/css">
	.st0{fill:#FF2B06;}
</style>
<g id="XMLID_74_">
	<g id="XMLID_677_">
		<path id="XMLID_757_" class="st0" d="M-212.3,293.4l-4.4-6.3h4.1l2.3,3.5l2.3-3.5h4l-4.4,6.2l4.9,7h-4.1l-2.8-4.2l-2.8,4.2h-3.8
			L-212.3,293.4z"/>
		<path id="XMLID_754_" d="M-186.1,292.6H-199v-2.7h12.9V292.6z M-186.1,298.1H-199v-2.7h12.9V298.1z"/>
		<path id="XMLID_751_" d="M-176.2,285.1h-3.6v-3h3.6V285.1z M-179.8,287.2h3.6v13.2h-3.6V287.2z"/>
		<path id="XMLID_749_" d="M-173.8,287.2h3.5v1.8h0.1c0.9-1.5,2.5-2.2,4-2.2c3.9,0,4.8,2.2,4.8,5.5v8.1h-3.6v-7.5
			c0-2.2-0.6-3.3-2.3-3.3c-2,0-2.8,1.1-2.8,3.8v6.9h-3.6L-173.8,287.2L-173.8,287.2z"/>
		<path id="XMLID_746_" d="M-149.7,298.7L-149.7,298.7c-0.9,1.4-2.4,2-4.1,2c-4,0-5.9-3.4-5.9-7.1c0-3.6,2-6.9,5.9-6.9
			c1.6,0,3.1,0.7,3.9,2l0,0h0.1V282h3.6v18.3h-3.5V298.7z M-152.9,289.6c-2.4,0-3.2,2-3.2,4.2c0,2.1,0.9,4.2,3.2,4.2
			c2.4,0,3.1-2.1,3.1-4.3C-149.7,291.6-150.5,289.6-152.9,289.6z"/>
		<path id="XMLID_743_" d="M-141,294.7c0.1,2.3,1.2,3.4,3.3,3.4c1.5,0,2.6-0.9,2.9-1.7h3.2c-1,3.1-3.2,4.5-6.2,4.5
			c-4.2,0-6.8-2.9-6.8-7c0-4,2.7-7,6.8-7c4.5,0,6.7,3.8,6.4,7.9L-141,294.7L-141,294.7z M-135.1,292.4c-0.3-1.8-1.1-2.8-2.9-2.8
			c-2.3,0-3,1.8-3,2.8H-135.1z"/>
		<path id="XMLID_740_" d="M-129.8,287.2h3.5v1.7h0.1c0.9-1.4,2.3-2,3.9-2c4.1,0,6,3.4,6,7.1c0,3.5-1.9,6.8-5.8,6.8
			c-1.6,0-3.1-0.7-4-2h-0.1v6.3h-3.6V287.2z M-120,293.8c0-2.1-0.8-4.3-3.2-4.3c-2.4,0-3.1,2.1-3.1,4.3c0,2.1,0.8,4.2,3.2,4.2
			C-120.8,298-120,296-120,293.8z"/>
		<path id="XMLID_737_" d="M-111.7,294.7c0.1,2.3,1.2,3.4,3.3,3.4c1.5,0,2.6-0.9,2.9-1.7h3.2c-1,3.1-3.2,4.5-6.2,4.5
			c-4.2,0-6.8-2.9-6.8-7c0-4,2.7-7,6.8-7c4.5,0,6.7,3.8,6.4,7.9L-111.7,294.7L-111.7,294.7z M-105.8,292.4c-0.3-1.8-1.1-2.8-2.9-2.8
			c-2.3,0-3,1.8-3,2.8H-105.8z"/>
		<path id="XMLID_735_" d="M-100.5,287.2h3.5v1.8h0.1c0.9-1.5,2.5-2.2,4-2.2c3.9,0,4.8,2.2,4.8,5.5v8.1h-3.6v-7.5
			c0-2.2-0.6-3.3-2.3-3.3c-2,0-2.8,1.1-2.8,3.8v6.9h-3.6L-100.5,287.2L-100.5,287.2z"/>
		<path id="XMLID_732_" d="M-76.4,298.7L-76.4,298.7c-0.9,1.4-2.4,2-4.1,2c-4,0-5.9-3.4-5.9-7.1c0-3.6,2-6.9,5.9-6.9
			c1.6,0,3.1,0.7,3.9,2l0,0h0.1V282h3.6v18.3h-3.5V298.7z M-79.6,289.6c-2.4,0-3.2,2-3.2,4.2c0,2.1,0.9,4.2,3.2,4.2
			c2.4,0,3.1-2.1,3.1-4.3C-76.5,291.6-77.2,289.6-79.6,289.6z"/>
		<path id="XMLID_729_" d="M-67.7,294.7c0.1,2.3,1.2,3.4,3.3,3.4c1.5,0,2.6-0.9,2.9-1.7h3.2c-1,3.1-3.2,4.5-6.2,4.5
			c-4.2,0-6.8-2.9-6.8-7c0-4,2.7-7,6.8-7c4.5,0,6.7,3.8,6.4,7.9L-67.7,294.7L-67.7,294.7z M-61.8,292.4c-0.3-1.8-1.1-2.8-2.9-2.8
			c-2.3,0-3,1.8-3,2.8H-61.8z"/>
		<path id="XMLID_727_" d="M-56.6,287.2h3.5v1.8h0.1c0.9-1.5,2.5-2.2,4-2.2c3.9,0,4.8,2.2,4.8,5.5v8.1h-3.6v-7.5
			c0-2.2-0.6-3.3-2.3-3.3c-2,0-2.8,1.1-2.8,3.8v6.9h-3.6L-56.6,287.2L-56.6,287.2z"/>
		<path id="XMLID_725_" d="M-37.3,287.2h2.7v2.4h-2.7v6.6c0,1.2,0.3,1.5,1.5,1.5c0.4,0,0.7,0,1.1-0.1v2.8c-0.6,0.1-1.4,0.1-2.1,0.1
			c-2.2,0-4.2-0.5-4.2-3.1v-7.8h-2.2v-2.4h2.2v-4h3.6L-37.3,287.2L-37.3,287.2z"/>
		<path id="XMLID_723_" d="M-33.3,282.1h3.6v18.3h-3.6V282.1z"/>
		<path id="XMLID_721_" d="M-20.8,302.1c-0.8,2.1-2,3-4.6,3c-0.7,0-1.5-0.1-2.2-0.1v-3c0.7,0.1,1.4,0.2,2.1,0.1
			c1.3-0.1,1.7-1.4,1.3-2.5l-4.7-12.4h3.9l3,9.1h0.1l2.9-9.1h3.8L-20.8,302.1z"/>
		<path id="XMLID_718_" d="M-1.5,286.8c4.2,0,6.9,2.8,6.9,7c0,4.2-2.7,7-6.9,7c-4.1,0-6.8-2.8-6.8-7C-8.3,289.6-5.7,286.8-1.5,286.8
			z M-1.5,298c2.5,0,3.2-2.1,3.2-4.2c0-2.1-0.7-4.2-3.2-4.2s-3.2,2.1-3.2,4.2C-4.7,295.9-4,298-1.5,298z"/>
		<path id="XMLID_716_" d="M6.7,287.2h3.5v2.5h0.1c0.7-1.7,2.5-2.8,4.2-2.8c0.3,0,0.6,0.1,0.8,0.1v3.4c-0.3-0.1-0.9-0.1-1.3-0.1
			c-2.7,0-3.6,1.9-3.6,4.2v6H6.8v-13.3H6.7z"/>
		<path id="XMLID_713_" d="M28.8,299.6c0,2.2-0.8,5.9-6.9,5.9c-2.6,0-5.7-1.2-5.8-4.2h3.6c0.3,1.4,1.4,1.8,2.7,1.8
			c2,0,2.9-1.4,2.9-3.3V298h-0.1c-0.8,1.4-2.4,2-4,2c-4,0-5.7-3-5.7-6.7c0-3.4,2-6.6,5.7-6.6c1.7,0,3.1,0.6,3.9,2.1h0.1V287h3.5
			L28.8,299.6L28.8,299.6z M25.4,293.6c0-2.2-0.7-4.1-3.1-4.1c-2,0-2.9,1.8-2.9,3.8c0,1.9,0.7,4,2.9,4
			C24.4,297.3,25.4,295.5,25.4,293.6z"/>
		<path id="XMLID_710_" d="M30.6,291.2c0.2-3.4,3.3-4.4,6.2-4.4c2.6,0,5.8,0.6,5.8,3.8v6.9c0,1.2,0.1,2.4,0.5,2.9h-3.7
			c-0.1-0.4-0.2-0.8-0.3-1.3c-1.2,1.2-2.8,1.6-4.5,1.6c-2.5,0-4.5-1.3-4.5-4c0-3,2.3-3.7,4.5-4c2.2-0.3,4.3-0.3,4.3-1.7
			c0-1.6-1.1-1.8-2.4-1.8c-1.4,0-2.3,0.6-2.4,2H30.6z M39,293.9c-0.6,0.5-1.9,0.6-3,0.8c-1.1,0.2-2.1,0.6-2.1,1.9
			c0,1.4,1,1.7,2.2,1.7c2.8,0,2.9-2.3,2.9-3V293.9z"/>
		<path id="XMLID_708_" d="M44.9,287.2h3.5v1.8h0.1c0.9-1.5,2.5-2.2,4-2.2c3.9,0,4.8,2.2,4.8,5.5v8.1h-3.6v-7.5
			c0-2.2-0.6-3.3-2.3-3.3c-2,0-2.8,1.1-2.8,3.8v6.9H45v-13.1H44.9z"/>
		<path id="XMLID_705_" d="M62.8,285.1h-3.6v-3h3.6V285.1z M59.2,287.2h3.6v13.2h-3.6V287.2z"/>
		<path id="XMLID_703_" d="M64.3,297.7l6.9-7.8h-6.4v-2.7H76v2.7l-6.9,7.8h7.4v2.7H64.3V297.7z"/>
		<path id="XMLID_700_" d="M80.9,294.7c0.1,2.3,1.2,3.4,3.3,3.4c1.5,0,2.6-0.9,2.9-1.7h3.2c-1,3.1-3.2,4.5-6.2,4.5
			c-4.2,0-6.8-2.9-6.8-7c0-4,2.7-7,6.8-7c4.5,0,6.7,3.8,6.4,7.9L80.9,294.7L80.9,294.7z M86.8,292.4c-0.3-1.8-1.1-2.8-2.9-2.8
			c-2.3,0-3,1.8-3,2.8H86.8z"/>
		<path id="XMLID_697_" d="M101.6,298.7L101.6,298.7c-0.9,1.4-2.4,2-4.1,2c-4,0-5.9-3.4-5.9-7.1c0-3.6,2-6.9,5.9-6.9
			c1.6,0,3.1,0.7,3.9,2l0,0h0.1V282h3.6v18.3h-3.5V298.7z M98.4,289.6c-2.4,0-3.2,2-3.2,4.2c0,2.1,0.9,4.2,3.2,4.2
			c2.4,0,3.1-2.1,3.1-4.3C101.5,291.6,100.7,289.6,98.4,289.6z"/>
		<path id="XMLID_695_" d="M118.3,285.5h-5.5v-3.4h15v3.4h-5.5v14.9h-4V285.5z"/>
		<path id="XMLID_693_" d="M129.3,282.1H143v3.4h-9.6v3.9h8.9v3.1h-8.9v4.5h9.9v3.4h-13.9v-18.3H129.3z"/>
		<path id="XMLID_690_" d="M144.9,282.1h7.9c4.7,0,8.3,3,8.3,9c0,5.3-2.7,9.2-8.3,9.2h-7.9V282.1z M148.9,297h3.6
			c2.3,0,4.6-1.4,4.6-5.5c0-3.7-1.3-6-5.3-6h-2.9L148.9,297L148.9,297z"/>
		<path id="XMLID_687_" d="M172.6,294.7c0.1,2.3,1.2,3.4,3.3,3.4c1.5,0,2.6-0.9,2.9-1.7h3.2c-1,3.1-3.2,4.5-6.2,4.5
			c-4.2,0-6.8-2.9-6.8-7c0-4,2.7-7,6.8-7c4.5,0,6.7,3.8,6.4,7.9L172.6,294.7L172.6,294.7z M178.5,292.4c-0.3-1.8-1.1-2.8-2.9-2.8
			c-2.3,0-3,1.8-3,2.8H178.5z"/>
		<path id="XMLID_685_" d="M190.6,300.4h-4l-4.5-13.2h3.8l2.8,9h0.1l2.8-9h3.6L190.6,300.4z"/>
		<path id="XMLID_682_" d="M198.5,294.7c0.1,2.3,1.2,3.4,3.3,3.4c1.5,0,2.6-0.9,2.9-1.7h3.2c-1,3.1-3.2,4.5-6.2,4.5
			c-4.2,0-6.8-2.9-6.8-7c0-4,2.7-7,6.8-7c4.5,0,6.7,3.8,6.4,7.9L198.5,294.7L198.5,294.7z M204.4,292.4c-0.3-1.8-1.1-2.8-2.9-2.8
			c-2.3,0-3,1.8-3,2.8H204.4z"/>
		<path id="XMLID_680_" d="M209.7,287.2h3.5v1.8h0.1c0.9-1.5,2.5-2.2,4-2.2c3.9,0,4.8,2.2,4.8,5.5v8.1h-3.6v-7.5
			c0-2.2-0.6-3.3-2.3-3.3c-2,0-2.8,1.1-2.8,3.8v6.9h-3.6v-13.1H209.7z"/>
		<path id="XMLID_678_" d="M229,287.2h2.7v2.4H229v6.6c0,1.2,0.3,1.5,1.5,1.5c0.4,0,0.7,0,1.1-0.1v2.8c-0.6,0.1-1.4,0.1-2.1,0.1
			c-2.2,0-4.2-0.5-4.2-3.1v-7.8h-2.2v-2.4h2.2v-4h3.6v4H229z"/>
	</g>
</g>
<g id="XMLID_25_">
	<g id="XMLID_66_">
		<path id="XMLID_72_" class="st0" d="M-201.3,221.7h-17.1v-15.6h52.8v15.6h-17V267h-18.7V221.7z"/>
		<path id="XMLID_70_" class="st0" d="M-162.6,206.1h51.3v15.6h-32.5v7.6h32.5v14.5h-32.5v7.6h32.5V267h-51.3V206.1z"/>
		<path id="XMLID_67_" class="st0" d="M-108.2,206.1h30.8c20.3,0,27.4,15,27.4,30.3c0,18.7-9.9,30.5-31.1,30.5h-27.1L-108.2,206.1
			L-108.2,206.1z M-89.4,251.3h7.3c11.7,0,13.4-9.5,13.4-15.2c0-3.8-1.2-14.5-14.8-14.5h-6v29.7H-89.4z"/>
	</g>
	<g id="XMLID_26_">
		<g id="XMLID_88_">
			<path id="XMLID_89_" class="st0" d="M-23,243.5l-5.7-9.5l-5.6,9.5H-48l13-19.2L-47.6,206h13.7l5.1,9.1l5.2-9.1h13.7l-12.6,18.3
				l13,19.2H-23z"/>
		</g>
	</g>
</g>
<g id="XMLID_1_">
	<path id="XMLID_24_" d="M5.6,266.9v-60.4h8V267h-8V266.9z"/>
	<path id="XMLID_61_" d="M28.5,266.9v-38H22v-5.8h6.6v-4.7c0-2.9,0.3-5.1,0.8-6.6c0.7-1.9,2-3.5,3.8-4.7c1.8-1.2,4.3-1.8,7.6-1.8
		c2.1,0,4.4,0.2,6.9,0.7l-1.1,6.5c-1.5-0.3-3-0.4-4.4-0.4c-2.3,0-3.9,0.5-4.8,1.4c-0.9,1-1.4,2.8-1.4,5.4v4h8.5v5.8H36v38h-7.5
		V266.9z"/>
	<path id="XMLID_63_" d="M80.2,252.8l7.7,0.9c-1.2,4.5-3.5,8-6.7,10.4c-3.3,2.5-7.5,3.7-12.5,3.7c-6.4,0-11.5-2-15.2-5.9
		c-3.8-3.9-5.6-9.5-5.6-16.6c0-7.4,1.9-13.1,5.7-17.2c3.8-4.1,8.7-6.1,14.8-6.1c5.9,0,10.6,2,14.4,6c3.7,4,5.6,9.6,5.6,16.8
		c0,0.4,0,1.1,0,2H55.7c0.3,4.8,1.6,8.5,4.1,11.1c2.4,2.6,5.5,3.8,9.2,3.8c2.7,0,5-0.7,7-2.1C77.6,258.2,79.1,256,80.2,252.8z
		 M55.9,240.8h24.5c-0.3-3.7-1.3-6.4-2.8-8.3c-2.4-2.9-5.4-4.3-9.2-4.3c-3.4,0-6.3,1.1-8.6,3.4C57.4,233.9,56.1,237,55.9,240.8z"/>
</g>
<g id="XMLID_20_">
</g>
<g id="XMLID_69_">
</g>
<g id="XMLID_71_">
</g>
<g id="XMLID_73_">
</g>
<g id="XMLID_75_">
</g>
<g id="XMLID_76_">
</g>
<g id="XMLID_77_">
</g>
<g id="XMLID_78_">
</g>
<g id="XMLID_79_">
</g>
<g id="XMLID_80_">
</g>
<g id="XMLID_81_">
</g>
<g id="XMLID_82_">
</g>
<g id="XMLID_83_">
</g>
<g id="XMLID_85_">
</g>
<g id="XMLID_86_">
</g>
</svg>
