<?xml version="1.0" encoding="utf-8"?>
<!-- Generator: Adobe Illustrator 19.0.0, SVG Export Plug-In . SVG Version: 6.00 Build 0)  -->
<svg version="1.1" id="Layer_1" xmlns="http://www.w3.org/2000/svg" xmlns:xlink="http://www.w3.org/1999/xlink" x="0px" y="0px"
	 viewBox="0 0 64 64" style="enable-background:new 0 0 64 64;" xml:space="preserve">
<style type="text/css">
	.st0{fill:#FFFFFF;}
</style>
<g id="XMLID_2_">
	<path id="XMLID_10_" class="st0" d="M32,26.7c-2.9,0-5.3,2.4-5.3,5.3s2.4,5.3,5.3,5.3c2.9,0,5.3-2.4,5.3-5.3S34.9,26.7,32,26.7z"/>
	<path id="XMLID_13_" class="st0" d="M44.5,22.6c-0.3-0.7-0.6-1.3-1.2-1.8c-0.6-0.6-1.1-0.9-1.8-1.2c-2.1-0.8-7.1-0.6-9.4-0.6
		c-2.3,0-7.3-0.2-9.4,0.6c-0.7,0.3-1.3,0.6-1.8,1.2c-0.6,0.6-0.9,1.1-1.2,1.8c-0.8,2.1-0.6,7.1-0.6,9.4s-0.2,7.3,0.6,9.4
		c0.3,0.7,0.6,1.3,1.2,1.8c0.6,0.6,1.1,0.9,1.8,1.2c2.1,0.8,7.1,0.6,9.4,0.6c2.3,0,7.3,0.2,9.4-0.6c0.7-0.3,1.3-0.6,1.8-1.2
		c0.6-0.6,0.9-1.1,1.2-1.8c0.8-2.1,0.6-7.1,0.6-9.4S45.3,24.7,44.5,22.6z M32,40.2c-4.5,0-8.2-3.7-8.2-8.2c0-4.5,3.7-8.2,8.2-8.2
		c4.5,0,8.2,3.7,8.2,8.2C40.2,36.5,36.5,40.2,32,40.2z M40.5,25.4c-1.1,0-1.9-0.9-1.9-1.9c0-1.1,0.9-1.9,1.9-1.9
		c1.1,0,1.9,0.9,1.9,1.9C42.5,24.5,41.6,25.4,40.5,25.4z"/>
	<path id="XMLID_17_" class="st0" d="M32,0C14.3,0,0,14.3,0,32c0,17.7,14.3,32,32,32s32-14.3,32-32C64,14.3,49.7,0,32,0z M47.9,38.6
		c-0.1,2.6-0.7,4.8-2.6,6.7c-1.9,1.9-4.1,2.5-6.7,2.6C36.4,48,34.2,48,32,48c-2.2,0-4.4,0-6.6-0.1c-2.6-0.1-4.8-0.7-6.7-2.6
		c-1.9-1.9-2.5-4.1-2.6-6.7C16,36.4,16,34.2,16,32s0-4.4,0.1-6.6c0.1-2.6,0.7-4.8,2.6-6.7c1.9-1.9,4.1-2.5,6.7-2.6
		C27.6,16,29.8,16,32,16c2.2,0,4.4,0,6.6,0.1c2.6,0.1,4.8,0.7,6.7,2.6c1.9,1.9,2.5,4.1,2.6,6.7C48,27.6,48,29.8,48,32
		S48,36.4,47.9,38.6z"/>
</g>
</svg>
