<?xml version="1.0" encoding="utf-8"?>
<!-- Generator: Adobe Illustrator 19.0.0, SVG Export Plug-In . SVG Version: 6.00 Build 0)  -->
<svg version="1.1" id="Layer_1" xmlns="http://www.w3.org/2000/svg" xmlns:xlink="http://www.w3.org/1999/xlink" x="0px" y="0px"
	 viewBox="0 0 64 64" style="enable-background:new 0 0 64 64;" xml:space="preserve">
<style type="text/css">
	.st0{fill:#FFFFFF;}
</style>
<path id="XMLID_8_" class="st0" d="M32,0C14.3,0,0,14.3,0,32c0,17.7,14.3,32,32,32s32-14.3,32-32C64,14.3,49.7,0,32,0z M46.7,24.5
	c0,0.3,0,0.7,0,1c0,10-7.6,21.5-21.5,21.5c-4.3,0-8.3-1.2-11.6-3.4c0.6,0.1,1.2,0.1,1.8,0.1c3.5,0,6.8-1.2,9.4-3.2
	c-3.3-0.1-6.1-2.3-7.1-5.3c0.5,0.1,0.9,0.1,1.4,0.1c0.7,0,1.3-0.1,2-0.3c-3.5-0.7-6.1-3.8-6.1-7.4c0,0,0-0.1,0-0.1
	c1,0.6,2.2,0.9,3.4,1c-2-1.4-3.4-3.7-3.4-6.3c0-1.4,0.4-2.7,1-3.8c3.7,4.6,9.3,7.6,15.6,7.9c-0.1-0.6-0.2-1.1-0.2-1.7
	c0-4.2,3.4-7.6,7.6-7.6c2.2,0,4.2,0.9,5.5,2.4c1.7-0.3,3.4-1,4.8-1.8c-0.6,1.8-1.8,3.2-3.3,4.2c1.5-0.2,3-0.6,4.4-1.2
	C49.4,22.1,48.1,23.4,46.7,24.5z"/>
</svg>
